<svg id="visual" viewBox="0 0 960 540" width="960" height="540" xmlns="http://www.w3.org/2000/svg" xmlns:xlink="http://www.w3.org/1999/xlink" version="1.1"><g stroke-width="1" stroke-linejoin="bevel"><path d="M511 333L590 294L474 186Z" fill="#205a7a" stroke="#205a7a"></path><path d="M590 294L602 250L474 186Z" fill="#277297" stroke="#277297"></path><path d="M570 81L447 146L474 186Z" fill="#297ea6" stroke="#297ea6"></path><path d="M474 186L361 333L511 333Z" fill="#15384f" stroke="#15384f"></path><path d="M602 250L570 81L474 186Z" fill="#246688" stroke="#246688"></path><path d="M336 198L361 333L474 186Z" fill="#081a28" stroke="#081a28"></path><path d="M348 147L336 198L447 146Z" fill="#205a7a" stroke="#205a7a"></path><path d="M447 146L336 198L474 186Z" fill="#1d4e6b" stroke="#1d4e6b"></path><path d="M361 333L451 440L511 333Z" fill="#1d4e6b" stroke="#1d4e6b"></path><path d="M511 333L571 456L590 294Z" fill="#00101c" stroke="#00101c"></path><path d="M385 0L348 147L447 146Z" fill="#277297" stroke="#277297"></path><path d="M571 456L720 307L590 294Z" fill="#1d4e6b" stroke="#1d4e6b"></path><path d="M590 294L720 307L602 250Z" fill="#0c2435" stroke="#0c2435"></path><path d="M602 250L730 228L570 81Z" fill="#0c2435" stroke="#0c2435"></path><path d="M451 440L571 456L511 333Z" fill="#246688" stroke="#246688"></path><path d="M720 307L730 228L602 250Z" fill="#297ea6" stroke="#297ea6"></path><path d="M570 81L475 0L447 146Z" fill="#205a7a" stroke="#205a7a"></path><path d="M361 333L334 439L451 440Z" fill="#081a28" stroke="#081a28"></path><path d="M451 440L497 540L571 456Z" fill="#19435d" stroke="#19435d"></path><path d="M246 395L334 439L361 333Z" fill="#081a28" stroke="#081a28"></path><path d="M219 226L259 291L336 198Z" fill="#19435d" stroke="#19435d"></path><path d="M336 198L259 291L361 333Z" fill="#246688" stroke="#246688"></path><path d="M698 0L604 0L570 81Z" fill="#112e42" stroke="#112e42"></path><path d="M570 81L604 0L475 0Z" fill="#1d4e6b" stroke="#1d4e6b"></path><path d="M822 244L753 110L730 228Z" fill="#246688" stroke="#246688"></path><path d="M730 228L753 110L570 81Z" fill="#1d4e6b" stroke="#1d4e6b"></path><path d="M755 446L801 305L720 307Z" fill="#081a28" stroke="#081a28"></path><path d="M720 307L801 305L730 228Z" fill="#15384f" stroke="#15384f"></path><path d="M475 0L385 0L447 146Z" fill="#0c2435" stroke="#0c2435"></path><path d="M266 87L219 226L336 198Z" fill="#00101c" stroke="#00101c"></path><path d="M346 540L497 540L451 440Z" fill="#0c2435" stroke="#0c2435"></path><path d="M571 456L755 446L720 307Z" fill="#15384f" stroke="#15384f"></path><path d="M801 305L822 244L730 228Z" fill="#0c2435" stroke="#0c2435"></path><path d="M266 87L336 198L348 147Z" fill="#081a28" stroke="#081a28"></path><path d="M259 291L246 395L361 333Z" fill="#297ea6" stroke="#297ea6"></path><path d="M385 0L266 87L348 147Z" fill="#205a7a" stroke="#205a7a"></path><path d="M627 540L755 446L571 456Z" fill="#15384f" stroke="#15384f"></path><path d="M960 362L960 226L822 244Z" fill="#246688" stroke="#246688"></path><path d="M497 540L627 540L571 456Z" fill="#1d4e6b" stroke="#1d4e6b"></path><path d="M753 110L698 0L570 81Z" fill="#112e42" stroke="#112e42"></path><path d="M839 0L698 0L753 110Z" fill="#297ea6" stroke="#297ea6"></path><path d="M131 401L246 395L259 291Z" fill="#081a28" stroke="#081a28"></path><path d="M334 439L346 540L451 440Z" fill="#081a28" stroke="#081a28"></path><path d="M822 244L814 107L753 110Z" fill="#081a28" stroke="#081a28"></path><path d="M274 540L346 540L334 439Z" fill="#081a28" stroke="#081a28"></path><path d="M627 540L743 540L755 446Z" fill="#112e42" stroke="#112e42"></path><path d="M755 446L858 428L801 305Z" fill="#205a7a" stroke="#205a7a"></path><path d="M219 226L151 254L259 291Z" fill="#112e42" stroke="#112e42"></path><path d="M89 120L151 254L219 226Z" fill="#297ea6" stroke="#297ea6"></path><path d="M246 395L274 540L334 439Z" fill="#112e42" stroke="#112e42"></path><path d="M131 401L274 540L246 395Z" fill="#205a7a" stroke="#205a7a"></path><path d="M836 540L858 428L755 446Z" fill="#205a7a" stroke="#205a7a"></path><path d="M960 134L839 0L814 107Z" fill="#112e42" stroke="#112e42"></path><path d="M385 0L208 0L266 87Z" fill="#205a7a" stroke="#205a7a"></path><path d="M266 87L89 120L219 226Z" fill="#112e42" stroke="#112e42"></path><path d="M960 134L814 107L822 244Z" fill="#205a7a" stroke="#205a7a"></path><path d="M814 107L839 0L753 110Z" fill="#1d4e6b" stroke="#1d4e6b"></path><path d="M0 212L111 284L151 254Z" fill="#112e42" stroke="#112e42"></path><path d="M151 254L131 401L259 291Z" fill="#081a28" stroke="#081a28"></path><path d="M111 284L131 401L151 254Z" fill="#246688" stroke="#246688"></path><path d="M743 540L836 540L755 446Z" fill="#205a7a" stroke="#205a7a"></path><path d="M960 362L822 244L801 305Z" fill="#081a28" stroke="#081a28"></path><path d="M960 362L801 305L858 428Z" fill="#277297" stroke="#277297"></path><path d="M208 0L89 120L266 87Z" fill="#205a7a" stroke="#205a7a"></path><path d="M960 431L960 362L858 428Z" fill="#112e42" stroke="#112e42"></path><path d="M960 226L960 134L822 244Z" fill="#19435d" stroke="#19435d"></path><path d="M960 540L960 431L858 428Z" fill="#19435d" stroke="#19435d"></path><path d="M0 317L131 401L111 284Z" fill="#00101c" stroke="#00101c"></path><path d="M0 449L105 540L131 401Z" fill="#297ea6" stroke="#297ea6"></path><path d="M131 401L105 540L274 540Z" fill="#297ea6" stroke="#297ea6"></path><path d="M208 0L81 0L89 120Z" fill="#297ea6" stroke="#297ea6"></path><path d="M89 120L0 212L151 254Z" fill="#277297" stroke="#277297"></path><path d="M960 134L960 0L839 0Z" fill="#1d4e6b" stroke="#1d4e6b"></path><path d="M0 107L0 212L89 120Z" fill="#205a7a" stroke="#205a7a"></path><path d="M0 212L0 317L111 284Z" fill="#0c2435" stroke="#0c2435"></path><path d="M836 540L960 540L858 428Z" fill="#1d4e6b" stroke="#1d4e6b"></path><path d="M81 0L0 107L89 120Z" fill="#15384f" stroke="#15384f"></path><path d="M0 317L0 449L131 401Z" fill="#19435d" stroke="#19435d"></path><path d="M81 0L0 0L0 107Z" fill="#081a28" stroke="#081a28"></path><path d="M0 449L0 540L105 540Z" fill="#246688" stroke="#246688"></path></g></svg>